===========================================================
Monday 27th of January 2014 11:32:41 AM
===========================================================

ffmpeg version N-45658-geb19d89-syslint Copyright (c) 2000-2012 the FFmpeg developers
  built on Oct 18 2012 04:35:45 with gcc 4.1.2 (GCC) 20080704 (Red Hat 4.1.2-52)
  configuration: --prefix=/usr/local/cpffmpeg --enable-shared --enable-nonfree --enable-gpl --enable-pthreads --enable-libopencore-amrnb --enable-decoder=liba52 --enable-libopencore-amrwb --enable-libfaac --enable-libmp3lame --enable-libtheora --enable-libvorbis --enable-libvpx --enable-libx264 --enable-libxvid --extra-cflags=-I/usr/local/cpffmpeg/include/ --extra-ldflags=-L/usr/local/cpffmpeg/lib --enable-version3 --extra-version=syslint
  libavutil      51. 76.100 / 51. 76.100
  libavcodec     54. 66.100 / 54. 66.100
  libavformat    54. 33.100 / 54. 33.100
  libavdevice    54.  3.100 / 54.  3.100
  libavfilter     3. 19.103 /  3. 19.103
  libswscale      2.  1.101 /  2.  1.101
  libswresample   0. 16.100 /  0. 16.100
  libpostproc    52.  1.100 / 52.  1.100
[wmv3 @ 0x9b32580] Extra data: 8 bits left, value: 0
Guessed Channel Layout for  Input Stream #0.0 : stereo
Input #0, asf, from '/home/brainver/public_html/testHLS/dog-race.wmv':
  Metadata:
    WMFSDKVersion   : 11.0.5721.5275
    WMFSDKNeeded    : 0.0.0.0000
    IsVBR           : 0
  Duration: 00:00:55.46, start: 0.000000, bitrate: 727 kb/s
    Stream #0:0: Audio: wmav2 (a[1][0][0] / 0x0161), 44100 Hz, stereo, fltp, 128 kb/s
    Stream #0:1: Video: wmv3 (Main) (WMV3 / 0x33564D57), yuv420p, 512x288, 700 kb/s, SAR 1:1 DAR 16:9, 25 tbr, 1k tbn, 1k tbc
-async is forwarded to lavfi similarly to -af aresample=min_comp=0.001:min_hard_comp=0.100000.
[libx264 @ 0x9b48120] VBV maxrate unspecified, assuming CBR
[libx264 @ 0x9b48120] using SAR=8/9
[libx264 @ 0x9b48120] using cpu capabilities: none!
[libx264 @ 0x9b48120] profile High, level 3.0
[wmv3 @ 0x9b32580] Extra data: 8 bits left, value: 0
Output #0, mpegts, to '/home/brainver/public_html/testHLS/output/dog-video.ts':
  Metadata:
    WMFSDKVersion   : 11.0.5721.5275
    WMFSDKNeeded    : 0.0.0.0000
    IsVBR           : 0
    encoder         : Lavf54.33.100
    Stream #0:0: Video: h264 (hq), yuv420p, 480x320 [SAR 8:9 DAR 4:3], q=10-51, 1200 kb/s, 90k tbn, 30 tbc
    Stream #0:1: Audio: aac, 48000 Hz, stereo, s16, 128 kb/s
Stream mapping:
  Stream #0:1 -> #0:0 (wmv3 -> libx264)
  Stream #0:0 -> #0:1 (wmav2 -> libfaac)
Press [q] to stop, [?] for help
frame=   49 fps=0.0 q=27.0 size=      37kB time=00:00:01.89 bitrate= 160.8kbits/s dup=8 drop=0    frame=   57 fps= 53 q=25.0 size=      54kB time=00:00:02.04 bitrate= 217.4kbits/s dup=9 drop=0    frame=   65 fps= 38 q=20.0 size=      79kB time=00:00:02.17 bitrate= 297.9kbits/s dup=11 drop=0    frame=   71 fps= 32 q=22.0 size=     104kB time=00:00:02.45 bitrate= 345.8kbits/s dup=12 drop=0    frame=   83 fps= 30 q=21.0 size=     183kB time=00:00:02.60 bitrate= 576.1kbits/s dup=14 drop=0    frame=   87 fps= 26 q=22.0 size=     198kB time=00:00:02.73 bitrate= 593.2kbits/s dup=14 drop=0    frame=   93 fps= 24 q=21.0 size=     231kB time=00:00:02.92 bitrate= 647.4kbits/s dup=15 drop=0    frame=   99 fps= 23 q=21.0 size=     249kB time=00:00:03.07 bitrate= 663.4kbits/s dup=16 drop=0    frame=  105 fps= 21 q=19.0 size=     281kB time=00:00:03.24 bitrate= 711.0kbits/s dup=17 drop=0    frame=  111 fps= 19 q=21.0 size=     354kB time=00:00:03.43 bitrate= 843.8kbits/s dup=18 drop=0    frame=  114 fps= 18 q=22.0 size=     372kB time=00:00:03.62 bitrate= 840.6kbits/s dup=19 drop=0    frame=  117 fps= 17 q=23.0 size=     399kB time=00:00:03.62 bitrate= 901.2kbits/s dup=19 drop=0    frame=  120 fps= 15 q=23.0 size=     415kB time=00:00:03.79 bitrate= 894.3kbits/s dup=20 drop=0    frame=  122 fps= 14 q=23.0 size=     430kB time=00:00:03.94 bitrate= 893.3kbits/s dup=20 drop=0    frame=  126 fps= 13 q=24.0 size=     455kB time=00:00:03.94 bitrate= 945.1kbits/s dup=21 drop=0    frame=  129 fps= 13 q=23.0 size=     483kB time=00:00:04.13 bitrate= 956.1kbits/s dup=21 drop=0    frame=  132 fps= 11 q=23.0 size=     501kB time=00:00:04.13 bitrate= 992.1kbits/s dup=22 drop=0    frame=  134 fps= 11 q=23.0 size=     520kB time=00:00:04.30 bitrate= 987.7kbits/s dup=22 drop=0    frame=  139 fps= 11 q=24.0 size=     567kB time=00:00:04.50 bitrate=1032.4kbits/s dup=23 drop=0    frame=  144 fps= 10 q=23.0 size=     600kB time=00:00:04.50 bitrate=1091.6kbits/s dup=24 drop=0    frame=  145 fps=9.9 q=23.0 size=     606kB time=00:00:04.69 bitrate=1057.5kbits/s dup=24 drop=0    frame=  149 fps=9.7 q=24.0 size=     632kB time=00:00:04.69 bitrate=1103.0kbits/s dup=25 drop=0    frame=  150 fps=9.4 q=23.0 size=     639kB time=00:00:04.69 bitrate=1114.5kbits/s dup=25 drop=0    frame=  152 fps=9.1 q=23.0 size=     654kB time=00:00:04.86 bitrate=1102.0kbits/s dup=25 drop=0    frame=  155 fps=8.9 q=24.0 size=     669kB time=00:00:04.86 bitrate=1127.4kbits/s dup=26 drop=0    frame=  156 fps=8.7 q=23.0 size=     676kB time=00:00:04.86 bitrate=1138.5kbits/s dup=26 drop=0    frame=  157 fps=8.4 q=23.0 size=     683kB time=00:00:05.05 bitrate=1106.3kbits/s dup=26 drop=0    frame=  161 fps=8.4 q=23.0 size=     706kB time=00:00:05.05 bitrate=1143.2kbits/s dup=27 drop=0    frame=  162 fps=8.2 q=23.0 size=     709kB time=00:00:05.05 bitrate=1149.1kbits/s dup=27 drop=0    frame=  165 fps=8.0 q=20.0 size=     731kB time=00:00:05.29 bitrate=1132.3kbits/s dup=27 drop=0    frame=  170 fps=7.9 q=23.0 size=     762kB time=00:00:05.48 bitrate=1139.0kbits/s dup=28 drop=0    frame=  173 fps=7.7 q=23.0 size=     779kB time=00:00:05.65 bitrate=1128.8kbits/s dup=29 drop=0    frame=  177 fps=7.7 q=23.0 size=     802kB time=00:00:05.88 bitrate=1115.7kbits/s dup=29 drop=0    frame=  180 fps=7.6 q=23.0 size=     811kB time=00:00:05.88 bitrate=1128.3kbits/s dup=30 drop=0    frame=  183 fps=7.5 q=23.0 size=     830kB time=00:00:05.88 bitrate=1154.6kbits/s dup=30 drop=0    frame=  185 fps=7.4 q=23.0 size=     836kB time=00:00:06.03 bitrate=1135.0kbits/s dup=31 drop=0    frame=  189 fps=7.4 q=23.0 size=     860kB time=00:00:06.03 bitrate=1166.6kbits/s dup=31 drop=0    frame=  192 fps=7.2 q=23.0 size=     869kB time=00:00:06.27 bitrate=1135.2kbits/s dup=32 drop=0    frame=  194 fps=7.1 q=23.0 size=     882kB time=00:00:06.40 bitrate=1129.4kbits/s dup=32 drop=0    frame=  200 fps=7.1 q=23.0 size=     919kB time=00:00:06.40 bitrate=1176.9kbits/s dup=33 drop=0    frame=  204 fps=7.0 q=23.0 size=     941kB time=00:00:06.59 bitrate=1169.3kbits/s dup=34 drop=0    frame=  207 fps=7.0 q=23.0 size=     959kB time=00:00:06.78 bitrate=1157.7kbits/s dup=34 drop=0    frame=  210 fps=6.9 q=23.0 size=     973kB time=00:00:06.78 bitrate=1175.0kbits/s dup=35 drop=0    frame=  212 fps=6.7 q=23.0 size=     986kB time=00:00:06.95 bitrate=1162.0kbits/s dup=35 drop=0    frame=  216 fps=6.6 q=23.0 size=    1002kB time=00:00:06.95 bitrate=1180.8kbits/s dup=36 drop=0    frame=  217 fps=6.5 q=23.0 size=    1010kB time=00:00:07.14 bitrate=1157.5kbits/s dup=36 drop=0    frame=  222 fps=6.5 q=23.0 size=    1032kB time=00:00:07.14 bitrate=1183.1kbits/s dup=37 drop=0    frame=  224 fps=6.4 q=23.0 size=    1042kB time=00:00:07.33 bitrate=1163.2kbits/s dup=37 drop=0    frame=  229 fps=6.4 q=23.0 size=    1076kB time=00:00:07.50 bitrate=1173.7kbits/s dup=38 drop=0    frame=  233 fps=6.4 q=23.0 size=    1096kB time=00:00:07.70 bitrate=1166.3kbits/s dup=39 drop=0    frame=  236 fps=6.4 q=23.0 size=    1114kB time=00:00:07.70 bitrate=1184.8kbits/s dup=39 drop=0    frame=  239 fps=6.3 q=23.0 size=    1130kB time=00:00:07.70 bitrate=1201.6kbits/s dup=40 drop=0    frame=  240 fps=6.2 q=23.0 size=    1137kB time=00:00:07.93 bitrate=1173.5kbits/s dup=40 drop=0    frame=  245 fps=6.2 q=23.0 size=    1163kB time=00:00:07.93 bitrate=1200.4kbits/s dup=41 drop=0    frame=  245 fps=6.1 q=23.0 size=    1163kB time=00:00:08.12 bitrate=1172.0kbits/s dup=41 drop=0    frame=  249 fps=6.1 q=23.0 size=    1187kB time=00:00:08.12 bitrate=1196.8kbits/s dup=41 drop=0    frame=  252 fps=6.0 q=23.0 size=    1204kB time=00:00:08.12 bitrate=1213.1kbits/s dup=42 drop=0    frame=  254 fps=6.0 q=23.0 size=    1215kB time=00:00:08.32 bitrate=1196.5kbits/s dup=42 drop=0    frame=  259 fps=6.0 q=23.0 size=    1253kB time=00:00:08.49 bitrate=1208.8kbits/s dup=43 drop=0    frame=  263 fps=6.0 q=23.0 size=    1281kB time=00:00:08.68 bitrate=1208.4kbits/s dup=44 drop=0    frame=  264 fps=5.9 q=23.0 size=    1286kB time=00:00:08.68 bitrate=1212.9kbits/s dup=44 drop=0    frame=  267 fps=5.9 q=23.0 size=    1307kB time=00:00:08.68 bitrate=1233.3kbits/s dup=44 drop=0    frame=  270 fps=5.8 q=23.0 size=    1326kB time=00:00:08.87 bitrate=1223.6kbits/s dup=45 drop=0    frame=  272 fps=5.8 q=23.0 size=    1339kB time=00:00:08.87 bitrate=1235.8kbits/s dup=45 drop=0    frame=  275 fps=5.7 q=24.0 size=    1357kB time=00:00:09.04 bitrate=1228.8kbits/s dup=46 drop=0    frame=  276 fps=5.7 q=23.0 size=    1363kB time=00:00:09.04 bitrate=1234.6kbits/s dup=46 drop=0    frame=  278 fps=5.6 q=23.0 size=    1375kB time=00:00:09.04 bitrate=1245.7kbits/s dup=46 drop=0    frame=  279 fps=5.6 q=23.0 size=    1383kB time=00:00:09.23 bitrate=1226.7kbits/s dup=46 drop=0    frame=  282 fps=5.6 q=20.0 size=    1399kB time=00:00:09.23 bitrate=1241.0kbits/s dup=47 drop=0    frame=  284 fps=5.5 q=23.0 size=    1419kB time=00:00:09.23 bitrate=1258.7kbits/s dup=47 drop=0    frame=  289 fps=5.6 q=23.0 size=    1450kB time=00:00:09.42 bitrate=1259.9kbits/s dup=48 drop=0    frame=  290 fps=5.5 q=23.0 size=    1458kB time=00:00:09.60 bitrate=1244.1kbits/s dup=48 drop=0    frame=  294 fps=5.5 q=23.0 size=    1484kB time=00:00:09.60 bitrate=1266.3kbits/s dup=49 drop=0    frame=  295 fps=5.4 q=23.0 size=    1489kB time=00:00:09.79 bitrate=1246.0kbits/s dup=49 drop=0    frame=  299 fps=5.4 q=23.0 size=    1514kB time=00:00:09.79 bitrate=1266.8kbits/s dup=50 drop=0    frame=  300 fps=5.3 q=23.0 size=    1520kB time=00:00:09.79 bitrate=1271.8kbits/s dup=50 drop=0    frame=  302 fps=5.3 q=23.0 size=    1532kB time=00:00:09.98 bitrate=1257.1kbits/s dup=50 drop=0    frame=  306 fps=5.2 q=23.0 size=    1555kB time=00:00:09.98 bitrate=1276.1kbits/s dup=51 drop=0    frame=  307 fps=5.2 q=23.0 size=    1561kB time=00:00:10.17 bitrate=1256.6kbits/s dup=51 drop=0    frame=  311 fps=5.2 q=24.0 size=    1584kB time=00:00:10.17 bitrate=1275.1kbits/s dup=52 drop=0    frame=  312 fps=5.2 q=20.0 size=    1591kB time=00:00:10.17 bitrate=1280.5kbits/s dup=52 drop=0    frame=  318 fps=5.2 q=23.0 size=    1637kB time=00:00:10.53 bitrate=1272.9kbits/s dup=53 drop=0    frame=  320 fps=5.2 q=23.0 size=    1653kB time=00:00:10.53 bitrate=1285.1kbits/s dup=53 drop=0    frame=  323 fps=5.2 q=23.0 size=    1664kB time=00:00:10.53 bitrate=1293.3kbits/s dup=54 drop=0    frame=  325 fps=5.1 q=23.0 size=    1680kB time=00:00:10.73 bitrate=1282.7kbits/s dup=54 drop=0    frame=  327 fps=5.1 q=23.0 size=    1695kB time=00:00:10.73 bitrate=1293.7kbits/s dup=54 drop=0    frame=  330 fps=5.1 q=24.0 size=    1708kB time=00:00:10.90 bitrate=1283.3kbits/s dup=55 drop=0    frame=  333 fps=5.1 q=23.0 size=    1730kB time=00:00:10.90 bitrate=1300.0kbits/s dup=55 drop=0    frame=  335 fps=5.1 q=23.0 size=    1737kB time=00:00:11.13 bitrate=1278.0kbits/s dup=56 drop=0    frame=  338 fps=5.1 q=24.0 size=    1764kB time=00:00:11.13 bitrate=1297.9kbits/s dup=56 drop=0    frame=  339 fps=5.0 q=24.0 size=    1768kB time=00:00:11.32 bitrate=1278.8kbits/s dup=56 drop=0    frame=  342 fps=5.1 q=22.0 size=    1781kB time=00:00:11.32 bitrate=1287.7kbits/s dup=57 drop=0    frame=  347 fps=5.0 q=25.0 size=    1827kB time=00:00:11.52 bitrate=1299.0kbits/s dup=58 drop=0    frame=  350 fps=5.0 q=24.0 size=    1844kB time=00:00:11.69 bitrate=1292.0kbits/s dup=58 drop=0    frame=  354 fps=5.0 q=25.0 size=    1861kB time=00:00:11.69 bitrate=1304.2kbits/s dup=59 drop=0    frame=  357 fps=5.0 q=24.0 size=    1881kB time=00:00:11.69 bitrate=1318.3kbits/s dup=59 drop=0    frame=  360 fps=5.0 q=24.0 size=    1893kB time=00:00:11.88 bitrate=1305.2kbits/s dup=60 drop=0    frame=  362 fps=5.0 q=23.0 size=    1906kB time=00:00:12.07 bitrate=1292.8kbits/s dup=60 drop=0    frame=  366 fps=5.0 q=24.0 size=    1924kB time=00:00:12.07 bitrate=1305.1kbits/s dup=61 drop=0    frame=  369 fps=5.0 q=23.0 size=    1941kB time=00:00:12.26 bitrate=1296.2kbits/s dup=61 drop=0    frame=  372 fps=5.0 q=21.0 size=    1953kB time=00:00:12.26 bitrate=1304.3kbits/s dup=62 drop=0    frame=  373 fps=4.9 q=23.0 size=    1958kB time=00:00:12.43 bitrate=1289.9kbits/s dup=62 drop=0    frame=  378 fps=4.9 q=23.0 size=    1998kB time=00:00:12.62 bitrate=1296.3kbits/s dup=63 drop=0    frame=  384 fps=5.0 q=23.0 size=    2034kB time=00:00:12.62 bitrate=1319.5kbits/s dup=64 drop=0    frame=  385 fps=4.9 q=23.0 size=    2037kB time=00:00:12.75 bitrate=1308.3kbits/s dup=64 drop=0    frame=  390 fps=5.0 q=24.0 size=    2063kB time=00:00:12.75 bitrate=1325.0kbits/s dup=65 drop=0    frame=  393 fps=5.0 q=23.0 size=    2081kB time=00:00:12.94 bitrate=1316.4kbits/s dup=65 drop=0    frame=  395 fps=4.9 q=24.0 size=    2093kB time=00:00:13.14 bitrate=1304.7kbits/s dup=66 drop=0    frame=  401 fps=5.0 q=23.0 size=    2125kB time=00:00:13.14 bitrate=1324.5kbits/s dup=67 drop=0    frame=  402 fps=4.9 q=21.0 size=    2127kB time=00:00:13.14 bitrate=1326.0kbits/s dup=67 drop=0    frame=  408 fps=5.0 q=23.0 size=    2174kB time=00:00:13.54 bitrate=1315.0kbits/s dup=68 drop=0    frame=  413 fps=5.0 q=23.0 size=    2203kB time=00:00:13.54 bitrate=1332.3kbits/s dup=69 drop=0    frame=  413 fps=4.9 q=23.0 size=    2203kB time=00:00:13.73 bitrate=1313.7kbits/s dup=69 drop=0    frame=  417 fps=4.9 q=23.0 size=    2225kB time=00:00:13.93 bitrate=1308.4kbits/s dup=69 drop=0    frame=  420 fps=4.9 q=23.0 size=    2238kB time=00:00:13.93 bitrate=1316.3kbits/s dup=70 drop=0    frame=  422 fps=4.9 q=23.0 size=    2252kB time=00:00:14.12 bitrate=1306.3kbits/s dup=70 drop=0    frame=  426 fps=4.9 q=23.0 size=    2273kB time=00:00:14.12 bitrate=1318.2kbits/s dup=71 drop=0    frame=  429 fps=4.9 q=23.0 size=    2288kB time=00:00:14.29 bitrate=1311.6kbits/s dup=71 drop=0    frame=  432 fps=4.9 q=20.0 size=    2301kB time=00:00:14.29 bitrate=1318.8kbits/s dup=72 drop=0    frame=  438 fps=4.9 q=23.0 size=    2350kB time=00:00:14.48 bitrate=1329.1kbits/s dup=73 drop=0    frame=  443 fps=5.0 q=24.0 size=    2377kB time=00:00:14.67 bitrate=1326.8kbits/s dup=74 drop=0    frame=  444 fps=4.9 q=23.0 size=    2380kB time=00:00:14.67 bitrate=1328.2kbits/s dup=74 drop=0    frame=  449 fps=5.0 q=23.0 size=    2407kB time=00:00:14.80 bitrate=1331.9kbits/s dup=75 drop=0    frame=  450 fps=4.9 q=23.0 size=    2410kB time=00:00:14.80 bitrate=1333.3kbits/s dup=75 drop=0    frame=  455 fps=4.9 q=23.0 size=    2436kB time=00:00:14.95 bitrate=1334.6kbits/s dup=76 drop=0    frame=  456 fps=4.9 q=23.0 size=    2438kB time=00:00:14.95 bitrate=1335.7kbits/s dup=76 drop=0    frame=  459 fps=4.9 q=23.0 size=    2459kB time=00:00:15.14 bitrate=1330.0kbits/s dup=76 drop=0    frame=  462 fps=4.9 q=20.0 size=    2469kB time=00:00:15.14 bitrate=1335.2kbits/s dup=77 drop=0    frame=  468 fps=4.9 q=23.0 size=    2512kB time=00:00:15.31 bitrate=1343.4kbits/s dup=78 drop=0    frame=  473 fps=5.0 q=23.0 size=    2537kB time=00:00:15.50 bitrate=1340.3kbits/s dup=79 drop=0    frame=  473 fps=4.9 q=23.0 size=    2537kB time=00:00:15.70 bitrate=1323.9kbits/s dup=79 drop=0    frame=  477 fps=4.9 q=23.0 size=    2561kB time=00:00:15.70 bitrate=1336.1kbits/s dup=79 drop=0    frame=  480 fps=4.9 q=23.0 size=    2571kB time=00:00:15.70 bitrate=1341.2kbits/s dup=80 drop=0    frame=  485 fps=4.9 q=23.0 size=    2599kB time=00:00:15.87 bitrate=1341.3kbits/s dup=81 drop=0    frame=  485 fps=4.9 q=23.0 size=    2599kB time=00:00:16.06 bitrate=1325.3kbits/s dup=81 drop=0    frame=  489 fps=4.9 q=22.0 size=    2616kB time=00:00:16.29 bitrate=1315.0kbits/s dup=81 drop=0    frame=  492 fps=4.9 q=19.0 size=    2629kB time=00:00:16.29 bitrate=1321.3kbits/s dup=82 drop=0    frame=  497 fps=4.9 q=23.0 size=    2675kB time=00:00:16.49 bitrate=1328.7kbits/s dup=83 drop=0    frame=  503 fps=4.9 q=23.0 size=    2704kB time=00:00:16.66 bitrate=1329.3kbits/s dup=84 drop=0    frame=  504 fps=4.9 q=23.0 size=    2705kB time=00:00:16.66 bitrate=1330.2kbits/s dup=84 drop=0    frame=  507 fps=4.9 q=22.0 size=    2718kB time=00:00:16.85 bitrate=1321.3kbits/s dup=84 drop=0    frame=  511 fps=4.9 q=22.0 size=    2734kB time=00:00:16.85 bitrate=1328.8kbits/s dup=85 drop=0    frame=  515 fps=4.9 q=22.0 size=    2751kB time=00:00:17.04 bitrate=1322.0kbits/s dup=86 drop=0    frame=  516 fps=4.9 q=21.0 size=    2756kB time=00:00:17.04 bitrate=1324.5kbits/s dup=86 drop=0    frame=  518 fps=4.9 q=22.0 size=    2764kB time=00:00:17.04 bitrate=1328.5kbits/s dup=86 drop=0    frame=  522 fps=4.9 q=18.0 size=    2778kB time=00:00:17.17 bitrate=1325.3kbits/s dup=87 drop=0    frame=  528 fps=4.9 q=20.0 size=    2826kB time=00:00:17.40 bitrate=1330.1kbits/s dup=88 drop=0    frame=  531 fps=4.9 q=20.0 size=    2840kB time=00:00:17.60 bitrate=1321.7kbits/s dup=88 drop=0    frame=  534 fps=4.9 q=20.0 size=    2853kB time=00:00:17.60 bitrate=1327.9kbits/s dup=89 drop=0    frame=  537 fps=4.9 q=20.0 size=    2865kB time=00:00:17.79 bitrate=1319.1kbits/s dup=89 drop=0    frame=  540 fps=4.9 q=21.0 size=    2877kB time=00:00:17.79 bitrate=1324.7kbits/s dup=90 drop=0    frame=  545 fps=4.9 q=22.0 size=    2904kB time=00:00:17.96 bitrate=1324.3kbits/s dup=91 drop=0    frame=  546 fps=4.9 q=22.0 size=    2906kB time=00:00:17.96 bitrate=1325.1kbits/s dup=91 drop=0    frame=  551 fps=4.9 q=21.0 size=    2934kB time=00:00:18.15 bitrate=1324.1kbits/s dup=92 drop=0    frame=  551 fps=4.9 q=21.0 size=    2934kB time=00:00:18.34 bitrate=1310.2kbits/s dup=92 drop=0    frame=  558 fps=5.0 q=21.0 size=    2988kB time=00:00:18.51 bitrate=1322.0kbits/s dup=93 drop=0    frame=  561 fps=5.0 q=20.0 size=    3000kB time=00:00:18.51 bitrate=1327.4kbits/s dup=93 drop=0    frame=  563 fps=5.0 q=20.0 size=    3011kB time=00:00:18.70 bitrate=1318.4kbits/s dup=94 drop=0    frame=  566 fps=5.0 q=20.0 size=    3022kB time=00:00:18.70 bitrate=1323.3kbits/s dup=94 drop=0    frame=  570 fps=4.9 q=22.0 size=    3043kB time=00:00:18.90 bitrate=1319.1kbits/s dup=95 drop=0    frame=  571 fps=4.9 q=21.0 size=    3051kB time=00:00:18.90 bitrate=1322.5kbits/s dup=95 drop=0    frame=  575 fps=4.9 q=22.0 size=    3073kB time=00:00:19.09 bitrate=1318.3kbits/s dup=96 drop=0    frame=  579 fps=4.9 q=21.0 size=    3092kB time=00:00:19.30 bitrate=1311.9kbits/s dup=96 drop=0    frame=  582 fps=4.9 q=18.0 size=    3106kB time=00:00:19.30 bitrate=1318.1kbits/s dup=97 drop=0    frame=  587 fps=4.9 q=21.0 size=    3157kB time=00:00:19.49 bitrate=1326.3kbits/s dup=98 drop=0    frame=  593 fps=5.0 q=21.0 size=    3190kB time=00:00:19.69 bitrate=1327.1kbits/s dup=99 drop=0    frame=  595 fps=5.0 q=21.0 size=    3194kB time=00:00:19.69 bitrate=1328.7kbits/s dup=99 drop=0    frame=  599 fps=5.0 q=21.0 size=    3215kB time=00:00:19.88 bitrate=1324.7kbits/s dup=100 drop=0    frame=  602 fps=5.0 q=20.0 size=    3229kB time=00:00:20.01 bitrate=1322.0kbits/s dup=100 drop=0    frame=  605 fps=4.9 q=22.0 size=    3242kB time=00:00:20.20 bitrate=1314.8kbits/s dup=101 drop=0    frame=  611 fps=5.0 q=21.0 size=    3273kB time=00:00:20.20 bitrate=1327.4kbits/s dup=102 drop=0    frame=  612 fps=4.9 q=18.0 size=    3275kB time=00:00:20.20 bitrate=1328.2kbits/s dup=102 drop=0    frame=  617 fps=5.0 q=19.0 size=    3325kB time=00:00:20.52 bitrate=1327.4kbits/s dup=103 drop=0    frame=  623 fps=5.0 q=21.0 size=    3365kB time=00:00:20.52 bitrate=1343.4kbits/s dup=104 drop=0    frame=  624 fps=5.0 q=21.0 size=    3368kB time=00:00:20.52 bitrate=1344.3kbits/s dup=104 drop=0    frame=  627 fps=5.0 q=20.0 size=    3387kB time=00:00:20.75 bitrate=1336.9kbits/s dup=104 drop=0    frame=  630 fps=5.0 q=21.0 size=    3401kB time=00:00:20.75 bitrate=1342.3kbits/s dup=105 drop=0    frame=  633 fps=5.0 q=20.0 size=    3421kB time=00:00:20.94 bitrate=1337.6kbits/s dup=105 drop=0    frame=  636 fps=5.0 q=21.0 size=    3433kB time=00:00:21.12 bitrate=1331.5kbits/s dup=106 drop=0    frame=  639 fps=4.9 q=20.0 size=    3446kB time=00:00:21.12 bitrate=1336.7kbits/s dup=106 drop=0    frame=  642 fps=4.9 q=18.0 size=    3460kB time=00:00:21.12 bitrate=1342.0kbits/s dup=107 drop=0    frame=  648 fps=5.0 q=21.0 size=    3509kB time=00:00:21.50 bitrate=1336.8kbits/s dup=108 drop=0    frame=  651 fps=5.0 q=22.0 size=    3525kB time=00:00:21.50 bitrate=1342.7kbits/s dup=108 drop=0    frame=  655 fps=5.0 q=21.0 size=    3540kB time=00:00:21.67 bitrate=1337.8kbits/s dup=109 drop=0    frame=  657 fps=4.9 q=20.0 size=    3548kB time=00:00:21.67 bitrate=1341.1kbits/s dup=109 drop=0    frame=  660 fps=4.9 q=21.0 size=    3561kB time=00:00:21.86 bitrate=1334.1kbits/s dup=110 drop=0    frame=  662 fps=4.9 q=21.0 size=    3576kB time=00:00:21.86 bitrate=1339.7kbits/s dup=110 drop=0    frame=  665 fps=4.9 q=22.0 size=    3590kB time=00:00:22.05 bitrate=1333.1kbits/s dup=111 drop=0    frame=  667 fps=4.9 q=22.0 size=    3605kB time=00:00:22.05 bitrate=1338.7kbits/s dup=111 drop=0    frame=  668 fps=4.9 q=21.0 size=    3608kB time=00:00:22.05 bitrate=1339.8kbits/s dup=111 drop=0    frame=  672 fps=4.9 q=18.0 size=    3630kB time=00:00:22.25 bitrate=1336.6kbits/s dup=112 drop=0    frame=  678 fps=4.9 q=21.0 size=    3687kB time=00:00:22.42 bitrate=1347.0kbits/s dup=113 drop=0    frame=  680 fps=4.9 q=21.0 size=    3702kB time=00:00:22.42 bitrate=1352.7kbits/s dup=113 drop=0    frame=  683 fps=4.9 q=22.0 size=    3714kB time=00:00:22.61 bitrate=1345.4kbits/s dup=114 drop=0    frame=  684 fps=4.9 q=22.0 size=    3716kB time=00:00:22.61 bitrate=1346.3kbits/s dup=114 drop=0    frame=  687 fps=4.9 q=20.0 size=    3733kB time=00:00:22.80 bitrate=1341.0kbits/s dup=114 drop=0    frame=  690 fps=4.9 q=21.0 size=    3751kB time=00:00:22.80 bitrate=1347.3kbits/s dup=115 drop=0    frame=  692 fps=4.9 q=21.0 size=    3763kB time=00:00:22.80 bitrate=1351.9kbits/s dup=115 drop=0    frame=  696 fps=4.9 q=22.0 size=    3784kB time=00:00:22.97 bitrate=1349.0kbits/s dup=116 drop=0    frame=  697 fps=4.9 q=22.0 size=    3787kB time=00:00:22.97 bitrate=1350.1kbits/s dup=116 drop=0    frame=  701 fps=4.9 q=21.0 size=    3811kB time=00:00:23.21 bitrate=1345.0kbits/s dup=117 drop=0    frame=  701 fps=4.9 q=21.0 size=    3811kB time=00:00:23.40 bitrate=1334.0kbits/s dup=117 drop=0    frame=  708 fps=4.9 q=21.0 size=    3867kB time=00:00:23.40 bitrate=1353.5kbits/s dup=118 drop=0    frame=  713 fps=4.9 q=22.0 size=    3893kB time=00:00:23.55 bitrate=1354.2kbits/s dup=119 drop=0    frame=  713 fps=4.9 q=22.0 size=    3893kB time=00:00:23.72 bitrate=1344.4kbits/s dup=119 drop=0    frame=  719 fps=4.9 q=21.0 size=    3925kB time=00:00:23.72 bitrate=1355.3kbits/s dup=120 drop=0    frame=  720 fps=4.9 q=21.0 size=    3927kB time=00:00:23.72 bitrate=1356.0kbits/s dup=120 drop=0    frame=  725 fps=4.9 q=22.0 size=    3960kB time=00:00:23.91 bitrate=1356.4kbits/s dup=121 drop=0    frame=  725 fps=4.9 q=22.0 size=    3960kB time=00:00:24.10 bitrate=1345.6kbits/s dup=121 drop=0    frame=  731 fps=4.9 q=21.0 size=    3989kB time=00:00:24.27 bitrate=1346.0kbits/s dup=122 drop=0    frame=  732 fps=4.9 q=18.0 size=    3991kB time=00:00:24.27 bitrate=1346.7kbits/s dup=122 drop=0    frame=  738 fps=4.9 q=20.0 size=    4040kB time=00:00:24.46 bitrate=1352.6kbits/s dup=123 drop=0    frame=  743 fps=4.9 q=20.0 size=    4066kB time=00:00:24.66 bitrate=1350.7kbits/s dup=124 drop=0    frame=  745 fps=4.9 q=20.0 size=    4078kB time=00:00:24.66 bitrate=1354.7kbits/s dup=124 drop=0    frame=  747 fps=4.9 q=21.0 size=    4092kB time=00:00:24.78 bitrate=1352.2kbits/s dup=124 drop=0    frame=  750 fps=4.9 q=21.0 size=    4103kB time=00:00:24.98 bitrate=1345.5kbits/s dup=125 drop=0    frame=  753 fps=4.9 q=20.0 size=    4119kB time=00:00:24.98 bitrate=1350.6kbits/s dup=125 drop=0    frame=  756 fps=4.9 q=21.0 size=    4130kB time=00:00:24.98 bitrate=1354.2kbits/s dup=126 drop=0    frame=  758 fps=4.9 q=20.0 size=    4141kB time=00:00:24.98 bitrate=1357.9kbits/s dup=126 drop=0    frame=  762 fps=4.9 q=17.0 size=    4165kB time=00:00:25.17 bitrate=1355.3kbits/s dup=127 drop=0    frame=  768 fps=4.9 q=20.0 size=    4216kB time=00:00:25.34 bitrate=1362.9kbits/s dup=128 drop=0    frame=  771 fps=4.9 q=20.0 size=    4227kB time=00:00:25.53 bitrate=1355.9kbits/s dup=128 drop=0    frame=  774 fps=4.9 q=21.0 size=    4243kB time=00:00:25.53 bitrate=1361.1kbits/s dup=129 drop=0    frame=  779 fps=4.9 q=21.0 size=    4273kB time=00:00:25.72 bitrate=1360.7kbits/s dup=130 drop=0    frame=  780 fps=4.9 q=21.0 size=    4276kB time=00:00:25.72 bitrate=1361.4kbits/s dup=130 drop=0    frame=  785 fps=4.9 q=21.0 size=    4302kB time=00:00:25.96 bitrate=1357.5kbits/s dup=131 drop=0    frame=  787 fps=4.9 q=21.0 size=    4313kB time=00:00:25.96 bitrate=1361.0kbits/s dup=131 drop=0    frame=  791 fps=4.9 q=20.0 size=    4336kB time=00:00:26.13 bitrate=1359.1kbits/s dup=132 drop=0    frame=  794 fps=4.9 q=20.0 size=    4370kB time=00:00:26.32 bitrate=1359.7kbits/s dup=132 drop=0    frame=  799 fps=4.9 q=21.0 size=    4403kB time=00:00:26.56 bitrate=1358.0kbits/s dup=133 drop=0    frame=  803 fps=4.9 q=22.0 size=    4426kB time=00:00:26.56 bitrate=1365.2kbits/s dup=134 drop=0    frame=  803 fps=4.9 q=22.0 size=    4426kB time=00:00:26.70 bitrate=1357.5kbits/s dup=134 drop=0    frame=  807 fps=4.9 q=21.0 size=    4439kB time=00:00:26.70 bitrate=1361.5kbits/s dup=134 drop=0    frame=  809 fps=4.9 q=21.0 size=    4455kB time=00:00:26.88 bitrate=1357.6kbits/s dup=135 drop=0    frame=  811 fps=4.9 q=21.0 size=    4460kB time=00:00:26.88 bitrate=1359.1kbits/s dup=135 drop=0    frame=  815 fps=4.9 q=21.0 size=    4483kB time=00:00:26.88 bitrate=1366.2kbits/s dup=136 drop=0    frame=  815 fps=4.9 q=21.0 size=    4483kB time=00:00:27.07 bitrate=1356.5kbits/s dup=136 drop=0    frame=  821 fps=4.9 q=20.0 size=    4517kB time=00:00:27.26 bitrate=1357.2kbits/s dup=137 drop=0    frame=  822 fps=4.9 q=18.0 size=    4520kB time=00:00:27.26 bitrate=1358.1kbits/s dup=137 drop=0    frame=  829 fps=4.9 q=21.0 size=    4581kB time=00:00:27.43 bitrate=1368.0kbits/s dup=138 drop=0    frame=  833 fps=4.9 q=21.0 size=    4605kB time=00:00:27.62 bitrate=1365.5kbits/s dup=139 drop=0    frame=  834 fps=4.9 q=21.0 size=    4611kB time=00:00:27.62 bitrate=1367.3kbits/s dup=139 drop=0    frame=  837 fps=4.9 q=21.0 size=    4632kB time=00:00:27.81 bitrate=1364.1kbits/s dup=139 drop=0    frame=  840 fps=4.9 q=21.0 size=    4650kB time=00:00:27.81 bitrate=1369.2kbits/s dup=140 drop=0    frame=  843 fps=4.9 q=21.0 size=    4671kB time=00:00:27.98 bitrate=1367.1kbits/s dup=140 drop=0    frame=  846 fps=4.9 q=21.0 size=    4685kB time=00:00:27.98 bitrate=1371.1kbits/s dup=141 drop=0    frame=  849 fps=4.9 q=21.0 size=    4709kB time=00:00:28.13 bitrate=1371.0kbits/s dup=141 drop=0    frame=  852 fps=4.9 q=18.0 size=    4722kB time=00:00:28.13 bitrate=1374.8kbits/s dup=142 drop=0    frame=  858 fps=4.9 q=21.0 size=    4778kB time=00:00:28.37 bitrate=1379.6kbits/s dup=143 drop=0    frame=  863 fps=4.9 q=22.0 size=    4811kB time=00:00:28.56 bitrate=1379.6kbits/s dup=144 drop=0    frame=  863 fps=4.9 q=22.0 size=    4811kB time=00:00:28.73 bitrate=1371.4kbits/s dup=144 drop=0    frame=  867 fps=4.9 q=22.0 size=    4839kB time=00:00:28.73 bitrate=1379.4kbits/s dup=144 drop=0    frame=  870 fps=4.9 q=22.0 size=    4853kB time=00:00:28.73 bitrate=1383.5kbits/s dup=145 drop=0    frame=  873 fps=4.9 q=22.0 size=    4875kB time=00:00:28.92 bitrate=1380.6kbits/s dup=145 drop=0    frame=  875 fps=4.9 q=23.0 size=    4887kB time=00:00:29.12 bitrate=1374.7kbits/s dup=146 drop=0    frame=  881 fps=4.9 q=23.0 size=    4924kB time=00:00:29.12 bitrate=1385.3kbits/s dup=147 drop=0    frame=  882 fps=4.9 q=20.0 size=    4927kB time=00:00:29.12 bitrate=1386.2kbits/s dup=147 drop=0    frame=  888 fps=4.9 q=22.0 size=    4985kB time=00:00:29.44 bitrate=1387.1kbits/s dup=148 drop=0    frame=  890 fps=4.9 q=22.0 size=    5001kB time=00:00:29.63 bitrate=1382.6kbits/s dup=148 drop=0    frame=  894 fps=4.9 q=23.0 size=    5023kB time=00:00:29.63 bitrate=1388.5kbits/s dup=149 drop=0    frame=  897 fps=4.9 q=23.0 size=    5046kB time=00:00:29.80 bitrate=1386.9kbits/s dup=149 drop=0    frame=  900 fps=4.9 q=23.0 size=    5058kB time=00:00:29.80 bitrate=1390.4kbits/s dup=150 drop=0    frame=  903 fps=4.9 q=22.0 size=    5080kB time=00:00:29.99 bitrate=1387.3kbits/s dup=150 drop=0    frame=  906 fps=4.9 q=23.0 size=    5093kB time=00:00:29.99 bitrate=1391.0kbits/s dup=151 drop=0    frame=  909 fps=4.9 q=22.0 size=    5113kB time=00:00:30.18 bitrate=1387.5kbits/s dup=151 drop=0    frame=  912 fps=4.9 q=20.0 size=    5126kB time=00:00:30.18 bitrate=1391.0kbits/s dup=152 drop=0    frame=  918 fps=4.9 q=22.0 size=    5167kB time=00:00:30.37 bitrate=1393.3kbits/s dup=153 drop=0    frame=  920 fps=4.9 q=22.0 size=    5182kB time=00:00:30.37 bitrate=1397.3kbits/s dup=153 drop=0    frame=  924 fps=4.9 q=22.0 size=    5203kB time=00:00:30.54 bitrate=1395.1kbits/s dup=154 drop=0    frame=  925 fps=4.9 q=22.0 size=    5206kB time=00:00:30.54 bitrate=1396.1kbits/s dup=154 drop=0    frame=  929 fps=4.9 q=22.0 size=    5229kB time=00:00:30.74 bitrate=1393.5kbits/s dup=155 drop=0    frame=  930 fps=4.9 q=22.0 size=    5233kB time=00:00:30.97 bitrate=1384.0kbits/s dup=155 drop=0    frame=  932 fps=4.9 q=22.0 size=    5247kB time=00:00:30.97 bitrate=1387.7kbits/s dup=155 drop=0    frame=  936 fps=4.9 q=22.0 size=    5266kB time=00:00:30.97 bitrate=1392.7kbits/s dup=156 drop=0    frame=  939 fps=4.9 q=22.0 size=    5286kB time=00:00:31.10 bitrate=1392.3kbits/s dup=156 drop=0    frame=  941 fps=4.9 q=19.0 size=    5292kB time=00:00:31.29 bitrate=1385.2kbits/s dup=157 drop=0    frame=  948 fps=4.9 q=22.0 size=    5340kB time=00:00:31.29 bitrate=1397.9kbits/s dup=158 drop=0    frame=  948 fps=4.9 q=22.0 size=    5340kB time=00:00:31.44 bitrate=1391.3kbits/s dup=158 drop=0    frame=  953 fps=4.9 q=22.0 size=    5367kB time=00:00:31.44 bitrate=1398.3kbits/s dup=159 drop=0    frame=  953 fps=4.9 q=22.0 size=    5367kB time=00:00:31.61 bitrate=1390.7kbits/s dup=159 drop=0    frame=  957 fps=4.9 q=22.0 size=    5392kB time=00:00:31.61 bitrate=1397.0kbits/s dup=159 drop=0    frame=  960 fps=4.8 q=22.0 size=    5402kB time=00:00:31.61 bitrate=1399.8kbits/s dup=160 drop=0    frame=  963 fps=4.8 q=22.0 size=    5421kB time=00:00:31.80 bitrate=1396.2kbits/s dup=160 drop=0    frame=  965 fps=4.8 q=22.0 size=    5431kB time=00:00:32.04 bitrate=1388.5kbits/s dup=161 drop=0    frame=  968 fps=4.8 q=22.0 size=    5448kB time=00:00:32.04 bitrate=1392.7kbits/s dup=161 drop=0    frame=  972 fps=4.8 q=22.0 size=    5477kB time=00:00:32.17 bitrate=1394.8kbits/s dup=162 drop=0    frame=  975 fps=4.8 q=22.0 size=    5496kB time=00:00:32.36 bitrate=1391.1kbits/s dup=162 drop=0    frame=  978 fps=4.8 q=22.0 size=    5509kB time=00:00:32.36 bitrate=1394.6kbits/s dup=163 drop=0    frame=  980 fps=4.8 q=22.0 size=    5520kB time=00:00:32.55 bitrate=1389.1kbits/s dup=163 drop=0    frame=  984 fps=4.8 q=22.0 size=    5540kB time=00:00:32.55 bitrate=1394.2kbits/s dup=164 drop=0    frame=  987 fps=4.8 q=22.0 size=    5561kB time=00:00:32.68 bitrate=1393.8kbits/s dup=164 drop=0    frame=  990 fps=4.8 q=22.0 size=    5571kB time=00:00:32.68 bitrate=1396.4kbits/s dup=165 drop=0    frame=  995 fps=4.8 q=22.0 size=    5599kB time=00:00:32.87 bitrate=1395.3kbits/s dup=166 drop=0    frame=  996 fps=4.8 q=22.0 size=    5603kB time=00:00:32.87 bitrate=1396.1kbits/s dup=166 drop=0    frame= 1001 fps=4.8 q=22.0 size=    5639kB time=00:00:33.06 bitrate=1397.1kbits/s dup=167 drop=0    frame= 1007 fps=4.9 q=22.0 size=    5674kB time=00:00:33.23 bitrate=1398.4kbits/s dup=168 drop=0    frame= 1008 fps=4.8 q=22.0 size=    5680kB time=00:00:33.42 bitrate=1392.0kbits/s dup=168 drop=0    frame= 1011 fps=4.8 q=22.0 size=    5701kB time=00:00:33.42 bitrate=1397.1kbits/s dup=168 drop=0    frame= 1014 fps=4.8 q=22.0 size=    5721kB time=00:00:33.42 bitrate=1401.9kbits/s dup=169 drop=0    frame= 1015 fps=4.8 q=22.0 size=    5725kB time=00:00:33.62 bitrate=1394.9kbits/s dup=169 drop=0    frame= 1019 fps=4.8 q=22.0 size=    5755kB time=00:00:33.62 bitrate=1402.1kbits/s dup=170 drop=0    frame= 1019 fps=4.8 q=22.0 size=    5755kB time=00:00:33.81 bitrate=1394.2kbits/s dup=170 drop=0    frame= 1025 fps=4.8 q=22.0 size=    5805kB time=00:00:33.98 bitrate=1399.4kbits/s dup=171 drop=0    frame= 1026 fps=4.8 q=22.0 size=    5809kB time=00:00:33.98 bitrate=1400.2kbits/s dup=171 drop=0    frame= 1031 fps=4.8 q=22.0 size=    5861kB time=00:00:33.98 bitrate=1412.9kbits/s dup=172 drop=0    frame= 1037 fps=4.8 q=22.0 size=    5895kB time=00:00:34.41 bitrate=1403.4kbits/s dup=173 drop=0    frame= 1045 fps=4.9 q=22.0 size=    5924kB time=00:00:34.60 bitrate=1402.5kbits/s dup=174 drop=0    frame= 1056 fps=4.9 q=22.0 size=    5956kB time=00:00:34.96 bitrate=1395.4kbits/s dup=176 drop=0    frame= 1063 fps=4.9 q=21.0 size=    6004kB time=00:00:35.15 bitrate=1399.1kbits/s dup=177 drop=0    frame= 1068 fps=4.9 q=21.0 size=    6022kB time=00:00:35.28 bitrate=1398.0kbits/s dup=178 drop=0    frame= 1070 fps=4.9 q=21.0 size=    6033kB time=00:00:35.47 bitrate=1393.1kbits/s dup=178 drop=0    frame= 1074 fps=4.9 q=21.0 size=    6053kB time=00:00:35.47 bitrate=1397.8kbits/s dup=179 drop=0    frame= 1075 fps=4.9 q=22.0 size=    6059kB time=00:00:35.66 bitrate=1391.5kbits/s dup=179 drop=0    frame= 1077 fps=4.9 q=21.0 size=    6073kB time=00:00:35.66 bitrate=1394.7kbits/s dup=179 drop=0    frame= 1080 fps=4.9 q=21.0 size=    6083kB time=00:00:35.66 bitrate=1397.1kbits/s dup=180 drop=0    frame= 1082 fps=4.9 q=21.0 size=    6097kB time=00:00:35.66 bitrate=1400.3kbits/s dup=180 drop=0    frame= 1085 fps=4.9 q=21.0 size=    6110kB time=00:00:35.90 bitrate=1394.0kbits/s dup=181 drop=0    frame= 1086 fps=4.9 q=21.0 size=    6115kB time=00:00:35.90 bitrate=1395.3kbits/s dup=181 drop=0    frame= 1088 fps=4.9 q=21.0 size=    6126kB time=00:00:36.07 bitrate=1391.1kbits/s dup=181 drop=0    frame= 1091 fps=4.9 q=21.0 size=    6151kB time=00:00:36.07 bitrate=1396.7kbits/s dup=182 drop=0    frame= 1095 fps=4.9 q=21.0 size=    6179kB time=00:00:36.30 bitrate=1394.2kbits/s dup=182 drop=0    frame= 1098 fps=4.9 q=21.0 size=    6194kB time=00:00:36.30 bitrate=1397.4kbits/s dup=183 drop=0    frame= 1100 fps=4.9 q=21.0 size=    6205kB time=00:00:36.45 bitrate=1394.3kbits/s dup=183 drop=0    frame= 1103 fps=4.9 q=21.0 size=    6222kB time=00:00:36.62 bitrate=1391.4kbits/s dup=184 drop=0    frame= 1106 fps=4.9 q=21.0 size=    6239kB time=00:00:36.62 bitrate=1395.4kbits/s dup=184 drop=0    frame= 1109 fps=4.9 q=21.0 size=    6256kB time=00:00:36.62 bitrate=1399.0kbits/s dup=185 drop=0    frame= 1110 fps=4.9 q=21.0 size=    6262kB time=00:00:36.82 bitrate=1393.1kbits/s dup=185 drop=0    frame= 1113 fps=4.9 q=21.0 size=    6285kB time=00:00:36.82 bitrate=1398.3kbits/s dup=185 drop=0    frame= 1115 fps=4.8 q=21.0 size=    6293kB time=00:00:37.01 bitrate=1392.8kbits/s dup=186 drop=0    frame= 1119 fps=4.8 q=18.0 size=    6319kB time=00:00:37.01 bitrate=1398.6kbits/s dup=186 drop=0    frame= 1124 fps=4.9 q=21.0 size=    6362kB time=00:00:37.24 bitrate=1399.3kbits/s dup=187 drop=0    frame= 1125 fps=4.9 q=21.0 size=    6371kB time=00:00:37.41 bitrate=1394.9kbits/s dup=187 drop=0    frame= 1129 fps=4.9 q=21.0 size=    6390kB time=00:00:37.41 bitrate=1398.9kbits/s dup=188 drop=0    frame= 1133 fps=4.8 q=21.0 size=    6409kB time=00:00:37.61 bitrate=1396.0kbits/s dup=189 drop=0    frame= 1135 fps=4.8 q=22.0 size=    6425kB time=00:00:37.61 bitrate=1399.4kbits/s dup=189 drop=0    frame= 1139 fps=4.8 q=22.0 size=    6445kB time=00:00:37.80 bitrate=1396.7kbits/s dup=190 drop=0    frame= 1141 fps=4.8 q=22.0 size=    6462kB time=00:00:37.80 bitrate=1400.3kbits/s dup=190 drop=0    frame= 1143 fps=4.8 q=22.0 size=    6475kB time=00:00:37.99 bitrate=1396.0kbits/s dup=190 drop=0    frame= 1147 fps=4.8 q=22.0 size=    6497kB time=00:00:37.99 bitrate=1400.9kbits/s dup=191 drop=0    frame= 1151 fps=4.8 q=22.0 size=    6534kB time=00:00:38.20 bitrate=1400.8kbits/s dup=192 drop=0    frame= 1157 fps=4.8 q=22.0 size=    6568kB time=00:00:38.40 bitrate=1401.1kbits/s dup=193 drop=0    frame= 1158 fps=4.8 q=23.0 size=    6580kB time=00:00:38.40 bitrate=1403.7kbits/s dup=193 drop=0    frame= 1161 fps=4.8 q=22.0 size=    6596kB time=00:00:38.59 bitrate=1400.1kbits/s dup=193 drop=0    frame= 1165 fps=4.8 q=22.0 size=    6617kB time=00:00:38.59 bitrate=1404.5kbits/s dup=194 drop=0    frame= 1169 fps=4.8 q=22.0 size=    6635kB time=00:00:38.78 bitrate=1401.5kbits/s dup=195 drop=0    frame= 1171 fps=4.8 q=22.0 size=    6650kB time=00:00:38.91 bitrate=1399.9kbits/s dup=195 drop=0    frame= 1175 fps=4.8 q=22.0 size=    6662kB time=00:00:38.91 bitrate=1402.5kbits/s dup=196 drop=0    frame= 1176 fps=4.8 q=22.0 size=    6677kB time=00:00:39.14 bitrate=1397.2kbits/s dup=196 drop=0    frame= 1181 fps=4.8 q=22.0 size=    6719kB time=00:00:39.33 bitrate=1399.2kbits/s dup=197 drop=0    frame= 1188 fps=4.8 q=22.0 size=    6765kB time=00:00:39.50 bitrate=1402.7kbits/s dup=198 drop=0    frame= 1190 fps=4.8 q=22.0 size=    6784kB time=00:00:39.50 bitrate=1406.5kbits/s dup=198 drop=0    frame= 1193 fps=4.8 q=23.0 size=    6810kB time=00:00:39.70 bitrate=1405.2kbits/s dup=199 drop=0    frame= 1197 fps=4.8 q=22.0 size=    6843kB time=00:00:39.70 bitrate=1411.9kbits/s dup=199 drop=0    frame= 1202 fps=4.8 q=22.0 size=    6875kB time=00:00:40.06 bitrate=1405.8kbits/s dup=200 drop=0    frame= 1205 fps=4.8 q=22.0 size=    6896kB time=00:00:40.25 bitrate=1403.3kbits/s dup=201 drop=0    frame= 1208 fps=4.8 q=25.0 size=    6913kB time=00:00:40.25 bitrate=1406.9kbits/s dup=201 drop=0    frame= 1214 fps=4.8 q=22.0 size=    6973kB time=00:00:40.25 bitrate=1419.0kbits/s dup=202 drop=0    frame= 1219 fps=4.8 q=22.0 size=    7003kB time=00:00:40.64 bitrate=1411.6kbits/s dup=203 drop=0    frame= 1224 fps=4.8 q=22.0 size=    7027kB time=00:00:40.64 bitrate=1416.4kbits/s dup=204 drop=0    frame= 1231 fps=4.9 q=22.0 size=    7059kB time=00:00:40.81 bitrate=1416.9kbits/s dup=205 drop=0    frame= 1236 fps=4.9 q=22.0 size=    7076kB time=00:00:41.00 bitrate=1413.7kbits/s dup=206 drop=0    frame= 1242 fps=4.9 q=22.0 size=    7138kB time=00:00:41.19 bitrate=1419.5kbits/s dup=207 drop=0    frame= 1248 fps=4.9 q=22.0 size=    7170kB time=00:00:41.55 bitrate=1413.4kbits/s dup=208 drop=0    frame= 1254 fps=4.9 q=22.0 size=    7198kB time=00:00:41.55 bitrate=1418.9kbits/s dup=209 drop=0    frame= 1259 fps=4.9 q=22.0 size=    7215kB time=00:00:41.94 bitrate=1409.3kbits/s dup=210 drop=0    frame= 1263 fps=4.9 q=22.0 size=    7229kB time=00:00:41.94 bitrate=1411.9kbits/s dup=210 drop=0    frame= 1267 fps=4.9 q=22.0 size=    7250kB time=00:00:42.11 bitrate=1410.2kbits/s dup=211 drop=0    frame= 1271 fps=4.9 q=22.0 size=    7300kB time=00:00:42.11 bitrate=1420.0kbits/s dup=212 drop=0    frame= 1275 fps=4.9 q=22.0 size=    7328kB time=00:00:42.34 bitrate=1417.6kbits/s dup=212 drop=0    frame= 1280 fps=4.9 q=22.0 size=    7349kB time=00:00:42.49 bitrate=1416.7kbits/s dup=213 drop=0    frame= 1285 fps=4.9 q=22.0 size=    7370kB time=00:00:42.73 bitrate=1413.0kbits/s dup=214 drop=0    frame= 1291 fps=5.0 q=22.0 size=    7398kB time=00:00:43.09 bitrate=1406.3kbits/s dup=215 drop=0    frame= 1298 fps=5.0 q=22.0 size=    7420kB time=00:00:43.09 bitrate=1410.5kbits/s dup=216 drop=0    frame= 1308 fps=5.0 q=22.0 size=    7493kB time=00:00:43.45 bitrate=1412.5kbits/s dup=218 drop=0    frame= 1315 fps=5.0 q=22.0 size=    7526kB time=00:00:43.64 bitrate=1412.4kbits/s dup=219 drop=0    frame= 1320 fps=5.0 q=22.0 size=    7551kB time=00:00:43.84 bitrate=1411.0kbits/s dup=220 drop=0    frame= 1326 fps=5.0 q=21.0 size=    7568kB time=00:00:44.07 bitrate=1406.7kbits/s dup=221 drop=0    frame= 1335 fps=5.1 q=21.0 size=    7642kB time=00:00:44.39 bitrate=1410.1kbits/s dup=222 drop=0    frame= 1343 fps=5.1 q=21.0 size=    7669kB time=00:00:44.58 bitrate=1409.1kbits/s dup=224 drop=0    frame= 1350 fps=5.1 q=20.0 size=    7696kB time=00:00:44.75 bitrate=1408.6kbits/s dup=225 drop=0    frame= 1357 fps=5.1 q=21.0 size=    7724kB time=00:00:46.52 bitrate=1359.9kbits/s dup=226 drop=0    frame= 1368 fps=5.1 q=21.0 size=    7804kB time=00:00:46.72 bitrate=1368.4kbits/s dup=228 drop=0    frame= 1376 fps=5.2 q=21.0 size=    7833kB time=00:00:46.72 bitrate=1373.4kbits/s dup=229 drop=0    frame= 1385 fps=5.2 q=21.0 size=    7862kB time=00:00:46.72 bitrate=1378.6kbits/s dup=231 drop=0    frame= 1394 fps=5.2 q=17.0 size=    7929kB time=00:00:46.72 bitrate=1390.3kbits/s dup=232 drop=0    frame= 1400 fps=5.2 q=18.0 size=    8011kB time=00:00:46.72 bitrate=1404.7kbits/s dup=233 drop=0    frame= 1416 fps=5.2 q=14.0 size=    8035kB time=00:00:46.72 bitrate=1408.9kbits/s dup=236 drop=0    frame= 1451 fps=5.4 q=10.0 size=    8124kB time=00:00:46.89 bitrate=1419.3kbits/s dup=242 drop=0    frame= 1484 fps=5.5 q=10.0 size=    8168kB time=00:00:48.19 bitrate=1388.5kbits/s dup=247 drop=0    frame= 1523 fps=5.6 q=10.0 size=    8214kB time=00:00:49.87 bitrate=1349.1kbits/s dup=254 drop=0    frame= 1556 fps=5.7 q=10.0 size=    8273kB time=00:00:50.43 bitrate=1343.9kbits/s dup=259 drop=0    frame= 1596 fps=5.8 q=10.0 size=    8318kB time=00:00:51.56 bitrate=1321.4kbits/s dup=266 drop=0    frame= 1635 fps=6.0 q=10.0 size=    8361kB time=00:00:52.86 bitrate=1295.6kbits/s dup=272 drop=0    frame= 1650 fps=6.0 q=17232368.0 Lsize=    8486kB time=00:00:55.08 bitrate=1262.1kbits/s dup=275 drop=0
video:7047kB audio:592kB subtitle:0 global headers:0kB muxing overhead 11.085692%
[libx264 @ 0x9b48120] frame I:56    Avg QP:14.57  size: 25887
[libx264 @ 0x9b48120] frame P:839   Avg QP:17.80  size:  5576
[libx264 @ 0x9b48120] frame B:755   Avg QP:18.72  size:  1442
[libx264 @ 0x9b48120] consecutive B-frames: 28.3% 27.0% 15.1% 29.6%
[libx264 @ 0x9b48120] mb I  I16..4: 16.6% 11.0% 72.4%
[libx264 @ 0x9b48120] mb P  I16..4:  4.3%  0.0%  7.1%  P16..4: 26.9% 23.0% 11.9%  0.0%  0.0%    skip:26.8%
[libx264 @ 0x9b48120] mb B  I16..4:  0.5%  0.0%  0.5%  B16..8: 20.3% 11.0%  1.8%  direct: 8.5%  skip:57.4%  L0:36.0% L1:49.4% BI:14.5%
[libx264 @ 0x9b48120] 8x8 transform intra:3.9% inter:29.6%
[libx264 @ 0x9b48120] coded y,uvDC,uvAC intra: 78.2% 78.1% 50.7% inter: 20.2% 27.7% 3.5%
[libx264 @ 0x9b48120] i16 v,h,dc,p: 26% 51% 16%  7%
[libx264 @ 0x9b48120] i8 v,h,dc,ddl,ddr,vr,hd,vl,hu:  9% 44% 15%  2%  6%  2% 11%  3%  9%
[libx264 @ 0x9b48120] i4 v,h,dc,ddl,ddr,vr,hd,vl,hu: 18% 35% 17%  2%  8%  4%  8%  3%  6%
[libx264 @ 0x9b48120] i8c dc,h,v,p: 44% 36% 15%  5%
[libx264 @ 0x9b48120] Weighted P-Frames: Y:8.0% UV:1.7%
[libx264 @ 0x9b48120] ref P L0: 70.0% 14.7%  9.2%  2.8%  2.1%  1.1%  0.1%
[libx264 @ 0x9b48120] ref B L0: 90.1%  6.6%  3.0%  0.3%
[libx264 @ 0x9b48120] ref B L1: 97.0%  3.0%
[libx264 @ 0x9b48120] kb/s:1049.66

